<svg viewBox="0 0 200 200" xmlns="http://www.w3.org/2000/svg">

  <!-- Gear ring with inner bore cutout (fill-rule evenodd creates the hole) -->
  <path
    fill-rule="evenodd"
    fill="rgba(6,182,212,0.08)"
    stroke="#06b6d4"
    stroke-width="1.5"
    stroke-linejoin="miter"
    d="M 175.473 91.067 L 190.719 92.86 L 190.719 107.14 L 175.473 108.933 A 76 76 0 0 1 173.147 120.629 L 186.546 128.121 L 181.082 141.313 L 166.31 137.135 A 76 76 0 0 1 159.684 147.051 L 169.197 159.1 L 159.1 169.197 L 147.051 159.684 A 76 76 0 0 1 137.135 166.31 L 141.313 181.082 L 128.121 186.546 L 120.629 173.147 A 76 76 0 0 1 108.933 175.473 L 107.14 190.719 L 92.86 190.719 L 91.067 175.473 A 76 76 0 0 1 79.371 173.147 L 71.879 186.546 L 58.687 181.082 L 62.865 166.31 A 76 76 0 0 1 52.949 159.684 L 40.9 169.197 L 30.803 159.1 L 40.316 147.051 A 76 76 0 0 1 33.69 137.135 L 18.918 141.313 L 13.454 128.121 L 26.853 120.629 A 76 76 0 0 1 24.527 108.933 L 9.281 107.14 L 9.281 92.86 L 24.527 91.067 A 76 76 0 0 1 26.853 79.371 L 13.454 71.879 L 18.918 58.687 L 33.69 62.865 A 76 76 0 0 1 40.316 52.949 L 30.803 40.9 L 40.9 30.803 L 52.949 40.316 A 76 76 0 0 1 62.865 33.69 L 58.687 18.918 L 71.879 13.454 L 79.371 26.853 A 76 76 0 0 1 91.067 24.527 L 92.86 9.281 L 107.14 9.281 L 108.933 24.527 A 76 76 0 0 1 120.629 26.853 L 128.121 13.454 L 141.313 18.918 L 137.135 33.69 A 76 76 0 0 1 147.051 40.316 L 159.1 30.803 L 169.197 40.9 L 159.684 52.949 A 76 76 0 0 1 166.31 62.865 L 181.082 58.687 L 186.546 71.879 L 173.147 79.371 A 76 76 0 0 1 175.473 91.067 Z
    M 172 100 A 72 72 0 1 0 28 100 A 72 72 0 1 0 172 100 Z"
  />

  <!-- E — teal, industrial flat caps -->
  <line x1="54" y1="58" x2="54"  y2="142" stroke="#06b6d4" stroke-width="11" stroke-linecap="butt"/>
  <line x1="54" y1="58" x2="91"  y2="58"  stroke="#06b6d4" stroke-width="11" stroke-linecap="butt"/>
  <line x1="54" y1="100" x2="80" y2="100" stroke="#06b6d4" stroke-width="11" stroke-linecap="butt"/>
  <line x1="54" y1="142" x2="91" y2="142" stroke="#06b6d4" stroke-width="11" stroke-linecap="butt"/>

  <!-- F — amber, industrial flat caps -->
  <line x1="113" y1="58"  x2="113" y2="142" stroke="#f59e0b" stroke-width="11" stroke-linecap="butt"/>
  <line x1="113" y1="58"  x2="150" y2="58"  stroke="#f59e0b" stroke-width="11" stroke-linecap="butt"/>
  <line x1="113" y1="100" x2="138" y2="100" stroke="#f59e0b" stroke-width="11" stroke-linecap="butt"/>

</svg>
